<?xml version="1.0" encoding="UTF-8"?>
<svg id="Capa_1" data-name="Capa 1" xmlns="http://www.w3.org/2000/svg" viewBox="0 0 1238.55111 1704.55725">
  <defs>
    <style>
      .cls-1 {
        stroke: #4831d4;
      }

      .cls-1, .cls-2 {
        fill: none;
        stroke-miterlimit: 50;
        stroke-width: 2px;
      }

      .cls-3 {
        fill: #ccf381;
      }

      .cls-2 {
        stroke: #ccf381;
      }
    </style>
  </defs>
  <path class="cls-2" d="M985.172,451.04417h0l15.343,13.98207h0l15.343-13.98207h0l15.341,13.98207h0l15.343-13.98207h0l15.343,13.98207h0l15.343-13.98207h0l15.34399,13.98207h0l15.345-13.98207h0"/>
  <path class="cls-3" d="M3,1.50101c0,.82843-.67157,1.5-1.5,1.5s-1.5-.67157-1.5-1.5S.67157.00101,1.5.00101s1.5.67157,1.5,1.5ZM21.968,1.50101c0,.82843-.67157,1.5-1.5,1.5s-1.5-.67157-1.5-1.5S19.63957.00101,20.468.00101s1.5.67157,1.5,1.5ZM40.936,1.50101c0,.82871-.6718,1.5005-1.5005,1.5005s-1.5005-.6718-1.5005-1.5005S38.6068.0005,39.4355.0005s1.5005.6718,1.5005,1.5005ZM59.90401,1.50101c0,.82871-.6718,1.5005-1.5005,1.5005s-1.5005-.6718-1.5005-1.5005C56.903.67258,57.57457.00101,58.403.00101s1.5.67157,1.5,1.5h.00101ZM78.87201,1.50101c0,.82871-.6718,1.5005-1.5005,1.5005s-1.5005-.6718-1.5005-1.5005c0-.82843.67157-1.5,1.5-1.5s1.5.67157,1.5,1.5h.00101ZM97.839,1.50101c0,.82843-.67157,1.5-1.5,1.5s-1.5-.67157-1.5-1.5S95.51057.00101,96.339.00101s1.5.67157,1.5,1.5ZM116.80701,1.50101c0,.82843-.67157,1.5-1.5,1.5s-1.5-.67157-1.5-1.5S114.47858.00101,115.30701.00101s1.5.67157,1.5,1.5ZM135.776,1.50101c0,.82871-.6718,1.5005-1.5005,1.5005s-1.5005-.6718-1.5005-1.5005S133.44679.0005,134.2755.0005s1.5005.6718,1.5005,1.5005ZM154.744,1.50101c0,.82871-.67178,1.5005-1.50052,1.5005s-1.50049-.6718-1.50049-1.5005c0-.82843.67157-1.5,1.5-1.5s1.5.67157,1.5,1.5h.00101ZM173.71199,1.50101c0,.82898-.67203,1.50101-1.50101,1.50101s-1.50101-.67202-1.50101-1.50101.67203-1.50101,1.50101-1.50101,1.50101.67202,1.50101,1.50101ZM192.679,1.50101c0,.82843-.67157,1.5-1.5,1.5s-1.5-.67157-1.5-1.5S190.35057.00101,191.179.00101s1.5.67157,1.5,1.5ZM211.64699,1.50101c0,.82871-.67178,1.5005-1.50049,1.5005s-1.50052-.6718-1.50052-1.5005S209.31776.0005,210.1465.0005s1.50049.6718,1.50049,1.5005ZM3,20.72501c0,.82843-.67157,1.5-1.5,1.5s-1.5-.67157-1.5-1.5.67157-1.5,1.5-1.5,1.5.67157,1.5,1.5ZM21.968,20.72501c-.00027.82843-.67207,1.49978-1.5005,1.4995s-1.49977-.67207-1.4995-1.5005c0-.82843.67157-1.5,1.5-1.5s1.5.67157,1.5,1.5v.001ZM40.936,20.72501c-.00027.8287-.6723,1.50028-1.50101,1.5s-1.50027-.6723-1.5-1.501c0-.8287.6718-1.5005,1.5005-1.5005s1.5005.6718,1.5005,1.5005v.001ZM59.90401,20.72501c-.00027.8287-.6723,1.50028-1.50101,1.5s-1.50027-.6723-1.5-1.501c0-.82843.67157-1.5,1.5-1.5s1.5.67157,1.5,1.5l.00101.001ZM78.87201,20.72501c-.00027.8287-.6723,1.50028-1.50101,1.5s-1.50027-.6723-1.5-1.501c0-.82843.67157-1.5,1.5-1.5s1.5.67157,1.5,1.5l.00101.001ZM97.839,20.72501c0,.82843-.67157,1.5-1.5,1.5s-1.5-.67157-1.5-1.5.67157-1.5,1.5-1.5,1.5.67157,1.5,1.5ZM116.80701,20.72501c0,.82843-.67157,1.5-1.5,1.5s-1.5-.67157-1.5-1.5.67157-1.5,1.5-1.5,1.5.67157,1.5,1.5ZM135.776,20.72501c-.00027.8287-.6723,1.50028-1.50101,1.5s-1.50027-.6723-1.5-1.501c0-.8287.6718-1.5005,1.5005-1.5005s1.5005.6718,1.5005,1.5005v.001ZM154.744,20.72501c-.00027.8287-.6723,1.50028-1.50101,1.5s-1.50027-.6723-1.5-1.501c0-.82843.67157-1.5,1.5-1.5s1.5.67157,1.5,1.5l.00101.001ZM173.71199,20.72501c-.00027.82898-.67252,1.50078-1.5015,1.50051-.82901-.00028-1.50079-.67252-1.50052-1.50151,0-.82898.67203-1.50101,1.50101-1.50101s1.50101.67202,1.50101,1.50101v.001ZM192.679,20.72501c-.00027.82843-.67206,1.49978-1.50049,1.4995s-1.49979-.67207-1.49951-1.5005c0-.82843.67157-1.5,1.5-1.5s1.5.67157,1.5,1.5v.001ZM211.64699,20.72501c-.00027.8287-.6723,1.50028-1.50101,1.5s-1.50027-.6723-1.5-1.501c0-.8287.67178-1.5005,1.50052-1.5005s1.50049.6718,1.50049,1.5005v.001ZM3,39.94701c.03078.82785-.61537,1.52392-1.44322,1.5547-.82786.03078-1.52393-.61537-1.5547-1.44323-.00136-.03648-.00138-.073-.00008-.10948.02968-.8279.72488-1.47498,1.55278-1.4453.78547.02816,1.41602.65786,1.44522,1.4433ZM21.968,39.94701c0,.82843-.67157,1.5-1.5,1.5s-1.5-.67157-1.5-1.5.67157-1.5,1.5-1.5,1.5.67157,1.5,1.5ZM40.936,39.94701c0,.82843-.67157,1.5-1.5,1.5s-1.5-.67157-1.5-1.5.67157-1.5,1.5-1.5,1.5.67157,1.5,1.5ZM59.90401,39.94701c0,.82843-.67157,1.5-1.5,1.5s-1.5-.67157-1.5-1.5.67157-1.5,1.5-1.5,1.5.67157,1.5,1.5ZM78.87201,39.94701c0,.82843-.67157,1.5-1.5,1.5s-1.5-.67157-1.5-1.5.67157-1.5,1.5-1.5,1.5.67157,1.5,1.5ZM97.839,39.94701c.03078.82785-.61537,1.52392-1.44322,1.5547-.82787.03078-1.52393-.61537-1.5547-1.44323-.00136-.03648-.00139-.073-.00008-.10948.02968-.8279.72488-1.47498,1.55278-1.4453.78548.02816,1.41602.65786,1.44522,1.4433ZM116.80701,39.94701c.03078.82785-.61537,1.52392-1.44322,1.5547-.82787.03078-1.52393-.61537-1.5547-1.44323-.00136-.03648-.00139-.073-.00008-.10948.02968-.8279.72488-1.47498,1.55278-1.4453.78548.02816,1.41602.65786,1.44522,1.4433ZM135.776,39.94701c0,.82843-.67157,1.5-1.5,1.5s-1.5-.67157-1.5-1.5.67157-1.5,1.5-1.5,1.5.67157,1.5,1.5ZM154.744,39.94701c0,.82843-.67157,1.5-1.5,1.5s-1.5-.67157-1.5-1.5.67157-1.5,1.5-1.5,1.5.67157,1.5,1.5ZM173.71199,39.94701c0,.82843-.67157,1.5-1.5,1.5s-1.5-.67157-1.5-1.5.67157-1.5,1.5-1.5,1.5.67157,1.5,1.5ZM192.679,39.94701c0,.82843-.67157,1.5-1.5,1.5s-1.5-.67157-1.5-1.5.67157-1.5,1.5-1.5,1.5.67157,1.5,1.5ZM211.64699,39.94701c0,.82843-.67157,1.5-1.5,1.5s-1.5-.67157-1.5-1.5.67157-1.5,1.5-1.5,1.5.67157,1.5,1.5ZM3,59.17101c.03051.82787-.61588,1.52372-1.44373,1.55423-.82787.03051-1.52372-.61587-1.55423-1.44373-.00134-.03649-.00136-.07301-.00004-.10949.02996-.82788.72538-1.47473,1.55327-1.44477.78545.02843,1.41579.65833,1.44473,1.44378ZM21.968,59.17101c0,.82843-.67157,1.5-1.5,1.5s-1.5-.67157-1.5-1.5h0c0-.82843.67157-1.5,1.5-1.5s1.5.67157,1.5,1.5ZM40.936,59.17101c0,.82843-.67157,1.5-1.5,1.5s-1.5-.67157-1.5-1.5h0c0-.82843.67157-1.5,1.5-1.5s1.5.67157,1.5,1.5ZM59.90401,59.17101c0,.82843-.67157,1.5-1.5,1.5s-1.5-.67157-1.5-1.5h0c0-.82843.67157-1.5,1.5-1.5s1.5.67157,1.5,1.5ZM78.87201,59.17101c0,.82843-.67157,1.5-1.5,1.5s-1.5-.67157-1.5-1.5h0c0-.82843.67157-1.5,1.5-1.5s1.5.67157,1.5,1.5ZM97.839,59.17101c.03052.82787-.61588,1.52372-1.44374,1.55423-.82787.03051-1.52371-.61587-1.55423-1.44373-.00134-.03649-.00136-.07301-.00003-.10949.02995-.82788.72537-1.47473,1.55327-1.44477.78546.02843,1.41579.65833,1.44473,1.44378ZM116.80701,59.17101c.03052.82787-.61588,1.52372-1.44374,1.55423-.82787.03051-1.52371-.61587-1.55423-1.44373-.00134-.03649-.00136-.07301-.00003-.10949.02995-.82788.72537-1.47473,1.55327-1.44477.78546.02843,1.41579.65833,1.44473,1.44378ZM135.776,59.17101c0,.82843-.67157,1.5-1.5,1.5s-1.5-.67157-1.5-1.5h0c0-.82843.67157-1.5,1.5-1.5s1.5.67157,1.5,1.5ZM154.744,59.17101c0,.82843-.67157,1.5-1.5,1.5s-1.5-.67157-1.5-1.5h0c0-.82843.67157-1.5,1.5-1.5s1.5.67157,1.5,1.5ZM173.71199,59.17101c0,.82843-.67157,1.5-1.5,1.5s-1.5-.67157-1.5-1.5h0c0-.82843.67157-1.5,1.5-1.5s1.5.67157,1.5,1.5ZM192.679,59.17101c0,.82843-.67157,1.5-1.5,1.5s-1.5-.67157-1.5-1.5h0c0-.82843.67157-1.5,1.5-1.5s1.5.67157,1.5,1.5ZM211.64699,59.17101c0,.82843-.67157,1.5-1.5,1.5s-1.5-.67157-1.5-1.5h0c0-.82843.67157-1.5,1.5-1.5s1.5.67157,1.5,1.5ZM3,78.39401c.03051.82787-.61588,1.52372-1.44373,1.55423-.82787.03051-1.52372-.61588-1.55423-1.44374-.00134-.03648-.00136-.07301-.00004-.10949.02996-.82789.72538-1.47473,1.55327-1.44477.78545.02842,1.41579.65833,1.44473,1.44377ZM21.968,78.39401c0,.82843-.67157,1.5-1.5,1.5s-1.5-.67157-1.5-1.5.67157-1.5,1.5-1.5,1.5.67157,1.5,1.5ZM40.936,78.39401c0,.82843-.67157,1.5-1.5,1.5s-1.5-.67157-1.5-1.5.67157-1.5,1.5-1.5,1.5.67157,1.5,1.5ZM59.90401,78.39401c0,.82843-.67157,1.5-1.5,1.5s-1.5-.67157-1.5-1.5.67157-1.5,1.5-1.5,1.5.67157,1.5,1.5ZM78.87201,78.39401c0,.82843-.67157,1.5-1.5,1.5s-1.5-.67157-1.5-1.5.67157-1.5,1.5-1.5,1.5.67157,1.5,1.5ZM97.839,78.39401c.03052.82787-.61588,1.52372-1.44374,1.55423s-1.52371-.61588-1.55423-1.44374c-.00134-.03648-.00136-.07301-.00003-.10949.02995-.82789.72537-1.47473,1.55327-1.44477.78546.02842,1.41579.65833,1.44473,1.44377ZM116.80701,78.39401c.03052.82787-.61588,1.52372-1.44374,1.55423s-1.52371-.61588-1.55423-1.44374c-.00134-.03648-.00136-.07301-.00003-.10949.02995-.82789.72537-1.47473,1.55327-1.44477.78546.02842,1.41579.65833,1.44473,1.44377ZM135.776,78.39401c0,.82843-.67157,1.5-1.5,1.5s-1.5-.67157-1.5-1.5.67157-1.5,1.5-1.5,1.5.67157,1.5,1.5ZM154.744,78.39401c0,.82843-.67157,1.5-1.5,1.5s-1.5-.67157-1.5-1.5.67157-1.5,1.5-1.5,1.5.67157,1.5,1.5ZM173.71199,78.39401c0,.82843-.67157,1.5-1.5,1.5s-1.5-.67157-1.5-1.5.67157-1.5,1.5-1.5,1.5.67157,1.5,1.5ZM192.679,78.39401c0,.82843-.67157,1.5-1.5,1.5s-1.5-.67157-1.5-1.5.67157-1.5,1.5-1.5,1.5.67157,1.5,1.5ZM211.64699,78.39401c0,.82843-.67157,1.5-1.5,1.5s-1.5-.67157-1.5-1.5.67157-1.5,1.5-1.5,1.5.67157,1.5,1.5ZM3,97.61701c.03051.82787-.61588,1.52372-1.44373,1.55423-.82787.03051-1.52372-.61588-1.55423-1.44374-.00134-.03648-.00136-.07301-.00004-.10949.02996-.82789.72538-1.47473,1.55327-1.44477.78545.02842,1.41579.65833,1.44473,1.44377ZM21.968,97.61701c0,.82843-.67157,1.5-1.5,1.5s-1.5-.67157-1.5-1.5.67157-1.5,1.5-1.5,1.5.67157,1.5,1.5ZM40.936,97.61701c0,.82843-.67157,1.5-1.5,1.5s-1.5-.67157-1.5-1.5.67157-1.5,1.5-1.5,1.5.67157,1.5,1.5ZM59.90401,97.61701c0,.82843-.67157,1.5-1.5,1.5s-1.5-.67157-1.5-1.5.67157-1.5,1.5-1.5,1.5.67157,1.5,1.5ZM78.87201,97.61701c0,.82843-.67157,1.5-1.5,1.5s-1.5-.67157-1.5-1.5.67157-1.5,1.5-1.5,1.5.67157,1.5,1.5ZM97.839,97.61701c.03052.82787-.61588,1.52372-1.44374,1.55423s-1.52371-.61588-1.55423-1.44374c-.00134-.03648-.00136-.07301-.00003-.10949.02995-.82789.72537-1.47473,1.55327-1.44477.78546.02842,1.41579.65833,1.44473,1.44377ZM116.80701,97.61701c.03052.82787-.61588,1.52372-1.44374,1.55423s-1.52371-.61588-1.55423-1.44374c-.00134-.03648-.00136-.07301-.00003-.10949.02995-.82789.72537-1.47473,1.55327-1.44477.78546.02842,1.41579.65833,1.44473,1.44377ZM135.776,97.61701c0,.82843-.67157,1.5-1.5,1.5s-1.5-.67157-1.5-1.5.67157-1.5,1.5-1.5,1.5.67157,1.5,1.5ZM154.744,97.61701c0,.82843-.67157,1.5-1.5,1.5s-1.5-.67157-1.5-1.5.67157-1.5,1.5-1.5,1.5.67157,1.5,1.5ZM173.71199,97.61701c0,.82843-.67157,1.5-1.5,1.5s-1.5-.67157-1.5-1.5.67157-1.5,1.5-1.5,1.5.67157,1.5,1.5ZM192.679,97.61701c0,.82843-.67157,1.5-1.5,1.5s-1.5-.67157-1.5-1.5.67157-1.5,1.5-1.5,1.5.67157,1.5,1.5ZM211.64699,97.61701c0,.82843-.67157,1.5-1.5,1.5s-1.5-.67157-1.5-1.5.67157-1.5,1.5-1.5,1.5.67157,1.5,1.5ZM3,116.84101c0,.82843-.67157,1.5-1.5,1.5s-1.5-.67157-1.5-1.5.67157-1.5,1.5-1.5,1.5.67157,1.5,1.5ZM21.968,116.84101c-.00055.82843-.67258,1.49955-1.50101,1.499-.82841-.00055-1.49954-.67257-1.49899-1.501.00027-.82843.67207-1.49978,1.5005-1.4995.82843.00028,1.49977.67207,1.4995,1.5005v.001ZM40.936,116.84101c-.00055.8287-.67279,1.50005-1.50151,1.4995-.8287-.00055-1.50005-.6728-1.4995-1.5015.00027-.8287.6723-1.50028,1.50101-1.50001.8287.00028,1.50027.6723,1.5,1.50101v.001ZM59.90401,116.84101c-.00055.8287-.67279,1.50005-1.50151,1.4995-.8287-.00055-1.50005-.6728-1.4995-1.5015.00027-.82843.67207-1.49978,1.5005-1.4995.82843.00028,1.49977.67207,1.4995,1.5005l.00101.001ZM78.87201,116.84101c-.00055.8287-.67279,1.50005-1.50151,1.4995-.8287-.00055-1.50005-.6728-1.4995-1.5015.00027-.82843.67207-1.49978,1.5005-1.4995.82843.00028,1.49977.67207,1.4995,1.5005l.00101.001ZM97.839,116.84101c0,.82843-.67157,1.5-1.5,1.5s-1.5-.67157-1.5-1.5.67157-1.5,1.5-1.5,1.5.67157,1.5,1.5ZM116.80701,116.84101c0,.82843-.67157,1.5-1.5,1.5s-1.5-.67157-1.5-1.5.67157-1.5,1.5-1.5,1.5.67157,1.5,1.5ZM135.776,116.84101c-.00055.8287-.67279,1.50005-1.50151,1.4995-.8287-.00055-1.50005-.6728-1.4995-1.5015.00027-.8287.6723-1.50028,1.50101-1.50001.8287.00028,1.50027.6723,1.5,1.50101v.001ZM154.744,116.84101c-.00055.8287-.67279,1.50005-1.5015,1.4995s-1.50006-.6728-1.49951-1.5015c.00027-.82843.67206-1.49978,1.50049-1.4995.82843.00028,1.49979.67207,1.49951,1.5005l.00101.001ZM173.71199,116.84101c-.00055.82899-.67303,1.50056-1.50201,1.50001s-1.50055-.67302-1.5-1.50201c.00027-.82899.67252-1.50079,1.5015-1.50051.82901.00028,1.50079.67252,1.50052,1.50151h0v.001ZM192.679,116.84101c-.00055.82843-.67258,1.49955-1.50101,1.499s-1.49954-.67257-1.49899-1.501c.00027-.82843.67206-1.49978,1.50049-1.4995.82843.00028,1.49979.67207,1.49951,1.5005v.001ZM211.64699,116.84101c-.00055.8287-.67279,1.50005-1.5015,1.4995s-1.50006-.6728-1.49951-1.5015c.00027-.8287.6723-1.50028,1.50101-1.50001.8287.00028,1.50027.6723,1.5,1.50101v.001ZM3,136.06301c0,.82843-.67157,1.5-1.5,1.5s-1.5-.67157-1.5-1.5.67157-1.5,1.5-1.5,1.5.67157,1.5,1.5ZM21.968,136.06301c0,.82843-.67157,1.5-1.5,1.5s-1.5-.67157-1.5-1.5.67157-1.5,1.5-1.5,1.5.67157,1.5,1.5ZM40.936,136.06301c0,.8287-.6718,1.5005-1.5005,1.5005s-1.5005-.6718-1.5005-1.5005.6718-1.5005,1.5005-1.5005,1.5005.6718,1.5005,1.5005ZM59.90401,136.06301c0,.8287-.6718,1.5005-1.5005,1.5005s-1.5005-.6718-1.5005-1.5005c0-.82843.67157-1.5,1.5-1.5s1.5.67157,1.5,1.5h.00101ZM78.87201,136.06301c0,.8287-.6718,1.5005-1.5005,1.5005s-1.5005-.6718-1.5005-1.5005c0-.82843.67157-1.5,1.5-1.5s1.5.67157,1.5,1.5h.00101ZM97.839,136.06301c0,.82843-.67157,1.5-1.5,1.5s-1.5-.67157-1.5-1.5.67157-1.5,1.5-1.5,1.5.67157,1.5,1.5ZM116.80701,136.06301c0,.82843-.67157,1.5-1.5,1.5s-1.5-.67157-1.5-1.5.67157-1.5,1.5-1.5,1.5.67157,1.5,1.5ZM135.776,136.06301c0,.8287-.6718,1.5005-1.5005,1.5005s-1.5005-.6718-1.5005-1.5005.6718-1.5005,1.5005-1.5005,1.5005.6718,1.5005,1.5005ZM154.744,136.06301c0,.8287-.67178,1.5005-1.50052,1.5005s-1.50049-.6718-1.50049-1.5005c0-.82843.67157-1.5,1.5-1.5s1.5.67157,1.5,1.5h.00101ZM173.71199,136.06301c0,.82898-.67203,1.50101-1.50101,1.50101s-1.50101-.67203-1.50101-1.50101.67203-1.50101,1.50101-1.50101,1.50101.67203,1.50101,1.50101ZM192.679,136.06301c0,.82843-.67157,1.5-1.5,1.5s-1.5-.67157-1.5-1.5.67157-1.5,1.5-1.5,1.5.67157,1.5,1.5ZM211.64699,136.06301c0,.8287-.67178,1.5005-1.50049,1.5005s-1.50052-.6718-1.50052-1.5005.67178-1.5005,1.50052-1.5005,1.50049.6718,1.50049,1.5005ZM3,155.28601c.03051.82787-.61587,1.52371-1.44373,1.55423s-1.52372-.61586-1.55423-1.44373c-.00134-.03648-.00136-.07301-.00004-.1095.02996-.82788.72537-1.47473,1.55326-1.44478.78546.02843,1.41579.65833,1.44474,1.44377ZM21.968,155.28601c0,.82843-.67157,1.5-1.5,1.5s-1.5-.67157-1.5-1.5.67157-1.5,1.5-1.5,1.5.67157,1.5,1.5ZM40.936,155.28601c0,.82843-.67157,1.5-1.5,1.5s-1.5-.67157-1.5-1.5.67157-1.5,1.5-1.5,1.5.67157,1.5,1.5ZM59.90401,155.28601c0,.82843-.67157,1.5-1.5,1.5s-1.5-.67157-1.5-1.5.67157-1.5,1.5-1.5,1.5.67157,1.5,1.5ZM78.87201,155.28601c0,.82843-.67157,1.5-1.5,1.5s-1.5-.67157-1.5-1.5.67157-1.5,1.5-1.5,1.5.67157,1.5,1.5ZM97.839,155.28601c.03052.82787-.61588,1.52371-1.44373,1.55423-.82787.03052-1.52373-.61586-1.55424-1.44373-.00134-.03648-.00136-.07301-.00003-.1095.02995-.82788.72537-1.47473,1.55327-1.44478.78545.02843,1.41579.65833,1.44473,1.44377ZM116.80701,155.28601c.03052.82787-.61588,1.52371-1.44373,1.55423-.82787.03052-1.52373-.61586-1.55424-1.44373-.00134-.03648-.00136-.07301-.00003-.1095.02995-.82788.72537-1.47473,1.55327-1.44478.78545.02843,1.41579.65833,1.44473,1.44377ZM135.776,155.28601c0,.82843-.67157,1.5-1.5,1.5s-1.5-.67157-1.5-1.5.67157-1.5,1.5-1.5,1.5.67157,1.5,1.5ZM154.744,155.28601c0,.82843-.67157,1.5-1.5,1.5s-1.5-.67157-1.5-1.5.67157-1.5,1.5-1.5,1.5.67157,1.5,1.5ZM173.71199,155.28601c0,.82843-.67157,1.5-1.5,1.5s-1.5-.67157-1.5-1.5.67157-1.5,1.5-1.5,1.5.67157,1.5,1.5ZM192.679,155.28601c0,.82843-.67157,1.5-1.5,1.5s-1.5-.67157-1.5-1.5.67157-1.5,1.5-1.5,1.5.67157,1.5,1.5ZM211.64699,155.28601c0,.82843-.67157,1.5-1.5,1.5s-1.5-.67157-1.5-1.5.67157-1.5,1.5-1.5,1.5.67157,1.5,1.5ZM3,174.509c.03078.82785-.61537,1.52393-1.44322,1.5547-.82786.03078-1.52393-.61537-1.5547-1.44322-.00136-.03648-.00138-.073-.00008-.10948.02968-.8279.72488-1.47498,1.55278-1.4453.78547.02815,1.41602.65787,1.44522,1.4433ZM21.968,174.509c0,.82843-.67157,1.5-1.5,1.5s-1.5-.67157-1.5-1.5.67157-1.5,1.5-1.5,1.5.67157,1.5,1.5ZM40.936,174.509c0,.82843-.67157,1.5-1.5,1.5s-1.5-.67157-1.5-1.5.67157-1.5,1.5-1.5,1.5.67157,1.5,1.5ZM59.90401,174.509c0,.82843-.67157,1.5-1.5,1.5s-1.5-.67157-1.5-1.5.67157-1.5,1.5-1.5,1.5.67157,1.5,1.5ZM78.87201,174.509c0,.82843-.67157,1.5-1.5,1.5s-1.5-.67157-1.5-1.5.67157-1.5,1.5-1.5,1.5.67157,1.5,1.5ZM97.839,174.509c.03078.82785-.61537,1.52393-1.44322,1.5547-.82787.03078-1.52393-.61537-1.5547-1.44322-.00136-.03648-.00139-.073-.00008-.10948.02968-.8279.72488-1.47498,1.55278-1.4453.78548.02815,1.41602.65787,1.44522,1.4433ZM116.80701,174.509c.03078.82785-.61537,1.52393-1.44322,1.5547-.82787.03078-1.52393-.61537-1.5547-1.44322-.00136-.03648-.00139-.073-.00008-.10948.02968-.8279.72488-1.47498,1.55278-1.4453.78548.02815,1.41602.65787,1.44522,1.4433ZM135.776,174.509c0,.82843-.67157,1.5-1.5,1.5s-1.5-.67157-1.5-1.5.67157-1.5,1.5-1.5,1.5.67157,1.5,1.5ZM154.744,174.509c0,.82843-.67157,1.5-1.5,1.5s-1.5-.67157-1.5-1.5.67157-1.5,1.5-1.5,1.5.67157,1.5,1.5ZM173.71199,174.509c0,.82843-.67157,1.5-1.5,1.5s-1.5-.67157-1.5-1.5.67157-1.5,1.5-1.5,1.5.67157,1.5,1.5ZM192.679,174.509c0,.82843-.67157,1.5-1.5,1.5s-1.5-.67157-1.5-1.5.67157-1.5,1.5-1.5,1.5.67157,1.5,1.5ZM211.64699,174.509c0,.82843-.67157,1.5-1.5,1.5s-1.5-.67157-1.5-1.5.67157-1.5,1.5-1.5,1.5.67157,1.5,1.5ZM3,193.73201c.03078.82785-.61537,1.52393-1.44322,1.5547-.82786.03078-1.52393-.61537-1.5547-1.44322-.00136-.03648-.00138-.073-.00008-.10948.02968-.8279.72488-1.47498,1.55278-1.4453.78547.02815,1.41602.65787,1.44522,1.4433ZM21.968,193.73201c0,.82843-.67157,1.5-1.5,1.5s-1.5-.67157-1.5-1.5.67157-1.5,1.5-1.5,1.5.67157,1.5,1.5ZM40.936,193.73201c0,.82843-.67157,1.5-1.5,1.5s-1.5-.67157-1.5-1.5.67157-1.5,1.5-1.5,1.5.67157,1.5,1.5ZM59.90401,193.73201c0,.82843-.67157,1.5-1.5,1.5s-1.5-.67157-1.5-1.5.67157-1.5,1.5-1.5,1.5.67157,1.5,1.5ZM78.87201,193.73201c0,.82843-.67157,1.5-1.5,1.5s-1.5-.67157-1.5-1.5.67157-1.5,1.5-1.5,1.5.67157,1.5,1.5ZM97.839,193.73201c.03078.82785-.61537,1.52393-1.44322,1.5547-.82787.03078-1.52393-.61537-1.5547-1.44322-.00136-.03648-.00139-.073-.00008-.10948.02968-.8279.72488-1.47498,1.55278-1.4453.78548.02815,1.41602.65787,1.44522,1.4433ZM116.80701,193.73201c.03078.82785-.61537,1.52393-1.44322,1.5547-.82787.03078-1.52393-.61537-1.5547-1.44322-.00136-.03648-.00139-.073-.00008-.10948.02968-.8279.72488-1.47498,1.55278-1.4453.78548.02815,1.41602.65787,1.44522,1.4433ZM135.776,193.73201c0,.82843-.67157,1.5-1.5,1.5s-1.5-.67157-1.5-1.5.67157-1.5,1.5-1.5,1.5.67157,1.5,1.5ZM154.744,193.73201c0,.82843-.67157,1.5-1.5,1.5s-1.5-.67157-1.5-1.5.67157-1.5,1.5-1.5,1.5.67157,1.5,1.5ZM173.71199,193.73201c0,.82843-.67157,1.5-1.5,1.5s-1.5-.67157-1.5-1.5.67157-1.5,1.5-1.5,1.5.67157,1.5,1.5ZM192.679,193.73201c0,.82843-.67157,1.5-1.5,1.5s-1.5-.67157-1.5-1.5.67157-1.5,1.5-1.5,1.5.67157,1.5,1.5ZM211.64699,193.73201c0,.82843-.67157,1.5-1.5,1.5s-1.5-.67157-1.5-1.5.67157-1.5,1.5-1.5,1.5.67157,1.5,1.5Z"/>
  <path class="cls-3" d="M988.00099,967.472c0,.8287-.67181,1.50049-1.50049,1.50049s-1.50049-.67178-1.50049-1.50049c0-.82843.67157-1.5,1.5-1.5s1.5.67157,1.5,1.5h.00098ZM1006.96797,967.472c0,.82843-.67157,1.5-1.5,1.5s-1.5-.67157-1.5-1.5.67157-1.5,1.5-1.5,1.5.67157,1.5,1.5ZM1025.93599,967.472c0,.8287-.67181,1.50049-1.50049,1.50049s-1.50049-.67178-1.50049-1.50049.67181-1.50049,1.50049-1.50049,1.50049.67178,1.50049,1.50049ZM1044.90401,967.472c0,.8287-.67181,1.50049-1.50049,1.50049s-1.50049-.67178-1.50049-1.50049c0-.82843.67157-1.5,1.5-1.5s1.5.67157,1.5,1.5h.00098ZM1063.87202,967.472c0,.8287-.67181,1.50049-1.50049,1.50049s-1.50049-.67178-1.50049-1.50049c0-.82843.67157-1.5,1.5-1.5s1.5.67157,1.5,1.5h.00098ZM1082.839,967.472c0,.82843-.67157,1.5-1.5,1.5s-1.5-.67157-1.5-1.5.67157-1.5,1.5-1.5,1.5.67157,1.5,1.5ZM1101.80702,967.472c0,.82843-.67157,1.5-1.5,1.5s-1.5-.67157-1.5-1.5.67157-1.5,1.5-1.5,1.5.67157,1.5,1.5ZM1120.77602,967.472c0,.8287-.67181,1.50049-1.50049,1.50049s-1.50049-.67178-1.50049-1.50049.67181-1.50049,1.50049-1.50049,1.50049.67178,1.50049,1.50049ZM1139.74397,967.472c0,.8287-.67181,1.50049-1.50049,1.50049s-1.50049-.67178-1.50049-1.50049c0-.82843.67157-1.5,1.5-1.5s1.5.67157,1.5,1.5h.00098ZM1158.71199,967.472c0,.82898-.672,1.50101-1.50098,1.50101-.82904,0-1.50104-.67203-1.50104-1.50101,0-.8287.67181-1.50049,1.50049-1.50049s1.50049.67178,1.50049,1.50049h.00104ZM1177.67903,967.472c0,.82843-.67157,1.5-1.5,1.5s-1.5-.67157-1.5-1.5.67157-1.5,1.5-1.5,1.5.67157,1.5,1.5ZM1196.64699,967.472c0,.8287-.67181,1.50049-1.50049,1.50049s-1.50049-.67178-1.50049-1.50049.67181-1.50049,1.50049-1.50049,1.50049.67178,1.50049,1.50049ZM988.00099,986.69499c-.00031.8287-.6723,1.50027-1.50098,1.5-.82874-.00031-1.50031-.6723-1.5-1.50101.00031-.82843.67206-1.49979,1.50049-1.49951.82843.00031,1.49982.67209,1.49951,1.50052h.00098ZM1006.96797,986.69499c-.00031.82843-.67206,1.49979-1.50049,1.49951-.82843-.00031-1.49982-.67209-1.49951-1.50052h0c.00031-.82843.67206-1.49979,1.50049-1.49951.82843.00031,1.49982.67209,1.49951,1.50052ZM1025.93599,986.69499c-.00031.8287-.6723,1.50027-1.50098,1.5-.82874-.00031-1.50031-.6723-1.5-1.50101s.6723-1.50027,1.50098-1.5c.82874.00031,1.50031.6723,1.5,1.50101h0ZM1044.90401,986.69499c-.00031.8287-.6723,1.50027-1.50098,1.5-.82874-.00031-1.50031-.6723-1.5-1.50101.00031-.82843.67206-1.49979,1.50049-1.49951.82843.00031,1.49982.67209,1.49951,1.50052h.00098ZM1063.87202,986.69499c-.00031.8287-.6723,1.50027-1.50098,1.5-.82874-.00031-1.50031-.6723-1.5-1.50101.00031-.82843.67206-1.49979,1.50049-1.49951.82843.00031,1.49982.67209,1.49951,1.50052h.00098ZM1082.839,986.69499c0,.82843-.67157,1.5-1.5,1.5s-1.5-.67157-1.5-1.5.67157-1.5,1.5-1.5,1.5.67157,1.5,1.5ZM1101.80702,986.69499c0,.82843-.67157,1.5-1.5,1.5s-1.5-.67157-1.5-1.5.67157-1.5,1.5-1.5,1.5.67157,1.5,1.5ZM1120.77602,986.69499c-.00031.8287-.6723,1.50027-1.50098,1.5-.82874-.00031-1.50031-.6723-1.5-1.50101s.6723-1.50027,1.50098-1.5c.82874.00031,1.50031.6723,1.5,1.50101h0ZM1139.74397,986.69499c-.00031.8287-.6723,1.50027-1.50098,1.5-.82874-.00031-1.50031-.6723-1.5-1.50101.00031-.82843.67206-1.49979,1.50049-1.49951.82843.00031,1.49982.67209,1.49951,1.50052h.00098ZM1158.71199,986.69499c-.00031.82898-.67255,1.50079-1.50153,1.50052-.82898-.00031-1.50079-.67255-1.50049-1.50153h0c.00031-.8287.6723-1.50027,1.50098-1.5.82874.00031,1.50031.6723,1.5,1.50101h.00104ZM1177.67903,986.69499c-.00031.82843-.67206,1.49979-1.50049,1.49951-.82843-.00031-1.49982-.67209-1.49951-1.50052h0c.00031-.82843.67206-1.49979,1.50049-1.49951.82843.00031,1.49982.67209,1.49951,1.50052ZM1196.64699,986.69499c-.00031.8287-.6723,1.50027-1.50098,1.5-.82874-.00031-1.50031-.6723-1.5-1.50101s.6723-1.50027,1.50098-1.5c.82874.00031,1.50031.6723,1.5,1.50101h0ZM988.00099,1005.91899c-.00031.8287-.6723,1.50027-1.50098,1.5-.82874-.00031-1.50031-.6723-1.5-1.50101,0-.82843.67157-1.5,1.5-1.5s1.5.67157,1.5,1.5l.00098.00101ZM1006.96797,1005.91899c-.00031.82843-.67206,1.49979-1.50049,1.49951-.82843-.00031-1.49982-.67209-1.49951-1.50052,0-.82843.67157-1.5,1.5-1.5s1.5.67157,1.5,1.5v.00101ZM1025.93599,1005.91899c-.00031.8287-.6723,1.50027-1.50098,1.5-.82874-.00031-1.50031-.6723-1.5-1.50101,0-.8287.67181-1.50049,1.50049-1.50049s1.50049.67178,1.50049,1.50049v.00101ZM1044.90401,1005.91899c-.00031.8287-.6723,1.50027-1.50098,1.5-.82874-.00031-1.50031-.6723-1.5-1.50101,0-.82843.67157-1.5,1.5-1.5s1.5.67157,1.5,1.5l.00098.00101ZM1063.87202,1005.91899c-.00031.8287-.6723,1.50027-1.50098,1.5-.82874-.00031-1.50031-.6723-1.5-1.50101,0-.82843.67157-1.5,1.5-1.5s1.5.67157,1.5,1.5l.00098.00101ZM1082.839,1005.91899c0,.82843-.67157,1.5-1.5,1.5s-1.5-.67157-1.5-1.5.67157-1.5,1.5-1.5,1.5.67157,1.5,1.5ZM1101.80702,1005.91899c0,.82843-.67157,1.5-1.5,1.5s-1.5-.67157-1.5-1.5.67157-1.5,1.5-1.5,1.5.67157,1.5,1.5ZM1120.77602,1005.91899c-.00031.8287-.6723,1.50027-1.50098,1.5-.82874-.00031-1.50031-.6723-1.5-1.50101,0-.8287.67181-1.50049,1.50049-1.50049s1.50049.67178,1.50049,1.50049v.00101ZM1139.74397,1005.91899c-.00031.8287-.6723,1.50027-1.50098,1.5-.82874-.00031-1.50031-.6723-1.5-1.50101,0-.82843.67157-1.5,1.5-1.5s1.5.67157,1.5,1.5l.00098.00101ZM1158.71199,1005.91899c-.00031.82898-.67255,1.50079-1.50153,1.50052-.82898-.00031-1.50079-.67255-1.50049-1.50153,0-.8287.67181-1.50049,1.50049-1.50049s1.50049.67178,1.50049,1.50049l.00104.00101ZM1177.67903,1005.91899c-.00031.82843-.67206,1.49979-1.50049,1.49951-.82843-.00031-1.49982-.67209-1.49951-1.50052,0-.82843.67157-1.5,1.5-1.5s1.5.67157,1.5,1.5v.00101ZM1196.64699,1005.91899c-.00031.8287-.6723,1.50027-1.50098,1.5-.82874-.00031-1.50031-.6723-1.5-1.50101,0-.8287.67181-1.50049,1.50049-1.50049s1.50049.67178,1.50049,1.50049v.00101ZM988.00099,1025.14101c0,.8287-.67181,1.50049-1.50049,1.50049s-1.50049-.67178-1.50049-1.50049c0-.82843.67157-1.5,1.5-1.5s1.5.67157,1.5,1.5h.00098ZM1006.96797,1025.14101c0,.82843-.67157,1.5-1.5,1.5s-1.5-.67157-1.5-1.5.67157-1.5,1.5-1.5,1.5.67157,1.5,1.5ZM1025.93599,1025.14101c0,.8287-.67181,1.50049-1.50049,1.50049s-1.50049-.67178-1.50049-1.50049.67181-1.50049,1.50049-1.50049,1.50049.67178,1.50049,1.50049ZM1044.90401,1025.14101c0,.8287-.67181,1.50049-1.50049,1.50049s-1.50049-.67178-1.50049-1.50049c0-.82843.67157-1.5,1.5-1.5s1.5.67157,1.5,1.5h.00098ZM1063.87202,1025.14101c0,.8287-.67181,1.50049-1.50049,1.50049s-1.50049-.67178-1.50049-1.50049c0-.82843.67157-1.5,1.5-1.5s1.5.67157,1.5,1.5h.00098ZM1082.839,1025.14101c0,.82843-.67157,1.5-1.5,1.5s-1.5-.67157-1.5-1.5.67157-1.5,1.5-1.5,1.5.67157,1.5,1.5ZM1101.80702,1025.14101c0,.82843-.67157,1.5-1.5,1.5s-1.5-.67157-1.5-1.5.67157-1.5,1.5-1.5,1.5.67157,1.5,1.5ZM1120.77602,1025.14101c0,.8287-.67181,1.50049-1.50049,1.50049s-1.50049-.67178-1.50049-1.50049.67181-1.50049,1.50049-1.50049,1.50049.67178,1.50049,1.50049ZM1139.74397,1025.14101c0,.8287-.67181,1.50049-1.50049,1.50049s-1.50049-.67178-1.50049-1.50049c0-.82843.67157-1.5,1.5-1.5s1.5.67157,1.5,1.5h.00098ZM1158.71199,1025.14101c0,.82898-.672,1.50101-1.50098,1.50101-.82904,0-1.50104-.67203-1.50104-1.50101,0-.8287.67181-1.50049,1.50049-1.50049s1.50049.67178,1.50049,1.50049h.00104ZM1177.67903,1025.14101c0,.82843-.67157,1.5-1.5,1.5s-1.5-.67157-1.5-1.5.67157-1.5,1.5-1.5,1.5.67157,1.5,1.5ZM1196.64699,1025.14101c0,.8287-.67181,1.50049-1.50049,1.50049s-1.50049-.67178-1.50049-1.50049.67181-1.50049,1.50049-1.50049,1.50049.67178,1.50049,1.50049ZM988.00099,1044.364c0,.82843-.67157,1.5-1.5,1.5s-1.5-.67157-1.5-1.5.67157-1.5,1.5-1.5,1.5.67157,1.5,1.5ZM1006.96797,1044.364c0,.82843-.67157,1.5-1.5,1.5s-1.5-.67157-1.5-1.5.67157-1.5,1.5-1.5,1.5.67157,1.5,1.5ZM1025.93599,1044.364c0,.82843-.67157,1.5-1.5,1.5s-1.5-.67157-1.5-1.5.67157-1.5,1.5-1.5,1.5.67157,1.5,1.5ZM1044.90401,1044.364c0,.82843-.67157,1.5-1.5,1.5s-1.5-.67157-1.5-1.5.67157-1.5,1.5-1.5,1.5.67157,1.5,1.5ZM1063.87202,1044.364c0,.82843-.67157,1.5-1.5,1.5s-1.5-.67157-1.5-1.5.67157-1.5,1.5-1.5,1.5.67157,1.5,1.5ZM1082.839,1044.364c.03064.82785-.61566,1.5238-1.44354,1.55444-.82782.03061-1.5238-.61566-1.55438-1.44354-.0014-.03662-.0014-.07327-.00006-.10989.03009-.82788.72559-1.47464,1.55347-1.44455.78528.0285,1.41547.65826,1.44452,1.44354ZM1101.80702,1044.364c.03064.82785-.61566,1.5238-1.44354,1.55444-.82782.03061-1.5238-.61566-1.55438-1.44354-.0014-.03662-.0014-.07327-.00006-.10989.03009-.82788.72559-1.47464,1.55347-1.44455.78528.0285,1.41547.65826,1.44452,1.44354ZM1120.77602,1044.364c0,.82843-.67157,1.5-1.5,1.5s-1.5-.67157-1.5-1.5.67157-1.5,1.5-1.5,1.5.67157,1.5,1.5ZM1139.74397,1044.364c0,.82843-.67157,1.5-1.5,1.5s-1.5-.67157-1.5-1.5.67157-1.5,1.5-1.5,1.5.67157,1.5,1.5ZM1158.71199,1044.364c0,.82843-.67157,1.5-1.5,1.5s-1.5-.67157-1.5-1.5.67157-1.5,1.5-1.5,1.5.67157,1.5,1.5ZM1177.67903,1044.364c0,.82843-.67157,1.5-1.5,1.5s-1.5-.67157-1.5-1.5.67157-1.5,1.5-1.5,1.5.67157,1.5,1.5ZM1196.64699,1044.364c0,.82843-.67157,1.5-1.5,1.5s-1.5-.67157-1.5-1.5.67157-1.5,1.5-1.5,1.5.67157,1.5,1.5ZM988.00099,1063.588c-.00024.82867-.6723,1.50024-1.50098,1.5s-1.50024-.6723-1.5-1.50098c0-.82843.67157-1.5,1.5-1.5s1.5.67157,1.5,1.5l.00098.00098ZM1006.96797,1063.588c-.00024.82843-.67206,1.49976-1.50049,1.49951s-1.49976-.67206-1.49951-1.50049c0-.82843.67157-1.5,1.5-1.5s1.5.67157,1.5,1.5v.00098ZM1025.93599,1063.588c-.00024.82867-.6723,1.50024-1.50098,1.5s-1.50024-.6723-1.5-1.50098c0-.82867.67181-1.50049,1.50049-1.50049s1.50049.67181,1.50049,1.50049v.00098ZM1044.90401,1063.588c-.00024.82867-.6723,1.50024-1.50098,1.5s-1.50024-.6723-1.5-1.50098c0-.82843.67157-1.5,1.5-1.5s1.5.67157,1.5,1.5l.00098.00098ZM1063.87202,1063.588c-.00024.82867-.6723,1.50024-1.50098,1.5s-1.50024-.6723-1.5-1.50098c0-.82843.67157-1.5,1.5-1.5s1.5.67157,1.5,1.5l.00098.00098ZM1082.839,1063.588c0,.82843-.67157,1.5-1.5,1.5s-1.5-.67157-1.5-1.5.67157-1.5,1.5-1.5,1.5.67157,1.5,1.5ZM1101.80702,1063.588c0,.82843-.67157,1.5-1.5,1.5s-1.5-.67157-1.5-1.5.67157-1.5,1.5-1.5,1.5.67157,1.5,1.5ZM1120.77602,1063.588c-.00024.82867-.6723,1.50024-1.50098,1.5s-1.50024-.6723-1.5-1.50098c0-.82867.67181-1.50049,1.50049-1.50049s1.50049.67181,1.50049,1.50049v.00098ZM1139.74397,1063.588c-.00024.82867-.6723,1.50024-1.50098,1.5s-1.50024-.6723-1.5-1.50098c0-.82843.67157-1.5,1.5-1.5s1.5.67157,1.5,1.5l.00098.00098ZM1158.71199,1063.588c-.00024.82898-.67249,1.50079-1.50153,1.50055-.82898-.00031-1.50073-.67255-1.50049-1.50153,0-.82867.67181-1.50049,1.50049-1.50049s1.50049.67181,1.50049,1.50049l.00104.00098ZM1177.67903,1063.588c-.00024.82843-.67206,1.49976-1.50049,1.49951s-1.49976-.67206-1.49951-1.50049c0-.82843.67157-1.5,1.5-1.5s1.5.67157,1.5,1.5v.00098ZM1196.64699,1063.588c-.00024.82867-.6723,1.50024-1.50098,1.5s-1.50024-.6723-1.5-1.50098c0-.82867.67181-1.50049,1.50049-1.50049s1.50049.67181,1.50049,1.50049v.00098ZM988.00099,1082.81102c0,.82843-.67157,1.5-1.5,1.5s-1.5-.67157-1.5-1.5.67157-1.5,1.5-1.5,1.5.67157,1.5,1.5ZM1006.96797,1082.81102c0,.82843-.67157,1.5-1.5,1.5s-1.5-.67157-1.5-1.5.67157-1.5,1.5-1.5,1.5.67157,1.5,1.5ZM1025.93599,1082.81102c0,.82843-.67157,1.5-1.5,1.5s-1.5-.67157-1.5-1.5.67157-1.5,1.5-1.5,1.5.67157,1.5,1.5ZM1044.90401,1082.81102c0,.82843-.67157,1.5-1.5,1.5s-1.5-.67157-1.5-1.5.67157-1.5,1.5-1.5,1.5.67157,1.5,1.5ZM1063.87202,1082.81102c0,.82843-.67157,1.5-1.5,1.5s-1.5-.67157-1.5-1.5.67157-1.5,1.5-1.5,1.5.67157,1.5,1.5ZM1082.839,1082.81102c.03033.82788-.61615,1.52362-1.44403,1.55396s-1.52362-.61615-1.55396-1.44403c-.00134-.03662-.00134-.0733,0-.10992.03033-.82788.72607-1.47437,1.55396-1.44403.78528.02881,1.41522.65875,1.44403,1.44403ZM1101.80702,1082.81102c.03033.82788-.61615,1.52362-1.44403,1.55396s-1.52362-.61615-1.55396-1.44403c-.00134-.03662-.00134-.0733,0-.10992.03033-.82788.72607-1.47437,1.55396-1.44403.78528.02881,1.41522.65875,1.44403,1.44403ZM1120.77602,1082.81102c0,.82843-.67157,1.5-1.5,1.5s-1.5-.67157-1.5-1.5.67157-1.5,1.5-1.5,1.5.67157,1.5,1.5ZM1139.74397,1082.81102c0,.82843-.67157,1.5-1.5,1.5s-1.5-.67157-1.5-1.5.67157-1.5,1.5-1.5,1.5.67157,1.5,1.5ZM1158.71199,1082.81102c0,.82843-.67157,1.5-1.5,1.5s-1.5-.67157-1.5-1.5.67157-1.5,1.5-1.5,1.5.67157,1.5,1.5ZM1177.67903,1082.81102c0,.82843-.67157,1.5-1.5,1.5s-1.5-.67157-1.5-1.5.67157-1.5,1.5-1.5,1.5.67157,1.5,1.5ZM1196.64699,1082.81102c0,.82843-.67157,1.5-1.5,1.5s-1.5-.67157-1.5-1.5.67157-1.5,1.5-1.5,1.5.67157,1.5,1.5ZM988.00099,1102.03398c-.00024.82867-.6723,1.50024-1.50098,1.5s-1.50024-.6723-1.5-1.50098c.00024-.82843.67206-1.49976,1.50049-1.49951s1.49976.67206,1.49951,1.50049h.00098ZM1006.96797,1102.03398c-.00024.82843-.67206,1.49976-1.50049,1.49951s-1.49976-.67206-1.49951-1.50049.67206-1.49976,1.50049-1.49951,1.49976.67206,1.49951,1.50049ZM1025.93599,1102.03398c-.00024.82867-.6723,1.50024-1.50098,1.5s-1.50024-.6723-1.5-1.50098.6723-1.50024,1.50098-1.5,1.50024.6723,1.5,1.50098ZM1044.90401,1102.03398c-.00024.82867-.6723,1.50024-1.50098,1.5s-1.50024-.6723-1.5-1.50098c.00024-.82843.67206-1.49976,1.50049-1.49951s1.49976.67206,1.49951,1.50049h.00098ZM1063.87202,1102.03398c-.00024.82867-.6723,1.50024-1.50098,1.5s-1.50024-.6723-1.5-1.50098c.00024-.82843.67206-1.49976,1.50049-1.49951s1.49976.67206,1.49951,1.50049h.00098ZM1082.839,1102.03398c0,.82843-.67157,1.5-1.5,1.5s-1.5-.67157-1.5-1.5.67157-1.5,1.5-1.5,1.5.67157,1.5,1.5ZM1101.80702,1102.03398c0,.82843-.67157,1.5-1.5,1.5s-1.5-.67157-1.5-1.5.67157-1.5,1.5-1.5,1.5.67157,1.5,1.5ZM1120.77602,1102.03398c-.00024.82867-.6723,1.50024-1.50098,1.5s-1.50024-.6723-1.5-1.50098.6723-1.50024,1.50098-1.5,1.50024.6723,1.5,1.50098ZM1139.74397,1102.03398c-.00024.82867-.6723,1.50024-1.50098,1.5s-1.50024-.6723-1.5-1.50098c.00024-.82843.67206-1.49976,1.50049-1.49951s1.49976.67206,1.49951,1.50049h.00098ZM1158.71199,1102.03398c-.00024.82898-.67249,1.50079-1.50153,1.50055-.82898-.00031-1.50073-.67255-1.50049-1.50153.00024-.82867.6723-1.50024,1.50098-1.5s1.50024.6723,1.5,1.50098h.00104ZM1177.67903,1102.03398c-.00024.82843-.67206,1.49976-1.50049,1.49951s-1.49976-.67206-1.49951-1.50049.67206-1.49976,1.50049-1.49951,1.49976.67206,1.49951,1.50049ZM1196.64699,1102.03398c-.00024.82867-.6723,1.50024-1.50098,1.5s-1.50024-.6723-1.5-1.50098.6723-1.50024,1.50098-1.5,1.50024.6723,1.5,1.50098ZM988.00099,1121.25701c-.00024.82867-.6723,1.50024-1.50098,1.5s-1.50024-.6723-1.5-1.50098c0-.82843.67157-1.5,1.5-1.5s1.5.67157,1.5,1.5l.00098.00098ZM1006.96797,1121.25701c-.00024.82843-.67206,1.49976-1.50049,1.49951s-1.49976-.67206-1.49951-1.50049c0-.82843.67157-1.5,1.5-1.5s1.5.67157,1.5,1.5v.00098ZM1025.93599,1121.25701c-.00024.82867-.6723,1.50024-1.50098,1.5s-1.50024-.6723-1.5-1.50098c0-.82867.67181-1.50049,1.50049-1.50049s1.50049.67181,1.50049,1.50049v.00098ZM1044.90401,1121.25701c-.00024.82867-.6723,1.50024-1.50098,1.5s-1.50024-.6723-1.5-1.50098c0-.82843.67157-1.5,1.5-1.5s1.5.67157,1.5,1.5l.00098.00098ZM1063.87202,1121.25701c-.00024.82867-.6723,1.50024-1.50098,1.5s-1.50024-.6723-1.5-1.50098c0-.82843.67157-1.5,1.5-1.5s1.5.67157,1.5,1.5l.00098.00098ZM1082.839,1121.25701c0,.82843-.67157,1.5-1.5,1.5s-1.5-.67157-1.5-1.5.67157-1.5,1.5-1.5,1.5.67157,1.5,1.5ZM1101.80702,1121.25701c0,.82843-.67157,1.5-1.5,1.5s-1.5-.67157-1.5-1.5.67157-1.5,1.5-1.5,1.5.67157,1.5,1.5ZM1120.77602,1121.25701c-.00024.82867-.6723,1.50024-1.50098,1.5s-1.50024-.6723-1.5-1.50098c0-.82867.67181-1.50049,1.50049-1.50049s1.50049.67181,1.50049,1.50049v.00098ZM1139.74397,1121.25701c-.00024.82867-.6723,1.50024-1.50098,1.5s-1.50024-.6723-1.5-1.50098c0-.82843.67157-1.5,1.5-1.5s1.5.67157,1.5,1.5l.00098.00098ZM1158.71199,1121.25701c-.00024.82898-.67249,1.50079-1.50153,1.50055-.82898-.00031-1.50073-.67255-1.50049-1.50153,0-.82867.67181-1.50049,1.50049-1.50049s1.50049.67181,1.50049,1.50049l.00104.00098ZM1177.67903,1121.25701c-.00024.82843-.67206,1.49976-1.50049,1.49951s-1.49976-.67206-1.49951-1.50049c0-.82843.67157-1.5,1.5-1.5s1.5.67157,1.5,1.5v.00098ZM1196.64699,1121.25701c-.00024.82867-.6723,1.50024-1.50098,1.5s-1.50024-.6723-1.5-1.50098c0-.82867.67181-1.50049,1.50049-1.50049s1.50049.67181,1.50049,1.50049v.00098ZM988.00099,1140.47899c0,.82843-.67157,1.5-1.5,1.5s-1.5-.67157-1.5-1.5.67157-1.5,1.5-1.5,1.5.67157,1.5,1.5ZM1006.96797,1140.47899c0,.82843-.67157,1.5-1.5,1.5s-1.5-.67157-1.5-1.5.67157-1.5,1.5-1.5,1.5.67157,1.5,1.5ZM1025.93599,1140.47899c0,.82843-.67157,1.5-1.5,1.5s-1.5-.67157-1.5-1.5.67157-1.5,1.5-1.5,1.5.67157,1.5,1.5ZM1044.90401,1140.47899c0,.82843-.67157,1.5-1.5,1.5s-1.5-.67157-1.5-1.5.67157-1.5,1.5-1.5,1.5.67157,1.5,1.5ZM1063.87202,1140.47899c0,.82843-.67157,1.5-1.5,1.5s-1.5-.67157-1.5-1.5.67157-1.5,1.5-1.5,1.5.67157,1.5,1.5ZM1082.839,1140.47899c.03088.82788-.61517,1.52399-1.44299,1.55493-.82788.03088-1.52399-.61517-1.55493-1.44299-.00134-.03662-.0014-.0733-.00006-.10992.02979-.82788.7251-1.47485,1.55298-1.44507.78528.02826,1.41571.65778,1.44501,1.44305ZM1101.80702,1140.47899c.03088.82788-.61517,1.52399-1.44299,1.55493-.82788.03088-1.52399-.61517-1.55493-1.44299-.00134-.03662-.0014-.0733-.00006-.10992.02979-.82788.7251-1.47485,1.55298-1.44507.78528.02826,1.41571.65778,1.44501,1.44305ZM1120.77602,1140.47899c0,.82843-.67157,1.5-1.5,1.5s-1.5-.67157-1.5-1.5.67157-1.5,1.5-1.5,1.5.67157,1.5,1.5ZM1139.74397,1140.47899c0,.82843-.67157,1.5-1.5,1.5s-1.5-.67157-1.5-1.5.67157-1.5,1.5-1.5,1.5.67157,1.5,1.5ZM1158.71199,1140.47899c0,.82843-.67157,1.5-1.5,1.5s-1.5-.67157-1.5-1.5.67157-1.5,1.5-1.5,1.5.67157,1.5,1.5ZM1177.67903,1140.47899c0,.82843-.67157,1.5-1.5,1.5s-1.5-.67157-1.5-1.5.67157-1.5,1.5-1.5,1.5.67157,1.5,1.5ZM1196.64699,1140.47899c0,.82843-.67157,1.5-1.5,1.5s-1.5-.67157-1.5-1.5.67157-1.5,1.5-1.5,1.5.67157,1.5,1.5ZM988.00099,1159.70299c-.00024.82867-.6723,1.50024-1.50098,1.5s-1.50024-.6723-1.5-1.50098c0-.82843.67157-1.5,1.5-1.5s1.5.67157,1.5,1.5l.00098.00098ZM1006.96797,1159.70299c-.00024.82843-.67206,1.49976-1.50049,1.49951s-1.49976-.67206-1.49951-1.50049c0-.82843.67157-1.5,1.5-1.5s1.5.67157,1.5,1.5v.00098ZM1025.93599,1159.70299c-.00024.82867-.6723,1.50024-1.50098,1.5s-1.50024-.6723-1.5-1.50098c0-.82867.67181-1.50049,1.50049-1.50049s1.50049.67181,1.50049,1.50049v.00098ZM1044.90401,1159.70299c-.00024.82867-.6723,1.50024-1.50098,1.5s-1.50024-.6723-1.5-1.50098c0-.82843.67157-1.5,1.5-1.5s1.5.67157,1.5,1.5l.00098.00098ZM1063.87202,1159.70299c-.00024.82867-.6723,1.50024-1.50098,1.5s-1.50024-.6723-1.5-1.50098c0-.82843.67157-1.5,1.5-1.5s1.5.67157,1.5,1.5l.00098.00098ZM1082.839,1159.70299c0,.82843-.67157,1.5-1.5,1.5s-1.5-.67157-1.5-1.5.67157-1.5,1.5-1.5,1.5.67157,1.5,1.5ZM1101.80702,1159.70299c0,.82843-.67157,1.5-1.5,1.5s-1.5-.67157-1.5-1.5.67157-1.5,1.5-1.5,1.5.67157,1.5,1.5ZM1120.77602,1159.70299c-.00024.82867-.6723,1.50024-1.50098,1.5s-1.50024-.6723-1.5-1.50098c0-.82867.67181-1.50049,1.50049-1.50049s1.50049.67181,1.50049,1.50049v.00098ZM1139.74397,1159.70299c-.00024.82867-.6723,1.50024-1.50098,1.5s-1.50024-.6723-1.5-1.50098c0-.82843.67157-1.5,1.5-1.5s1.5.67157,1.5,1.5l.00098.00098ZM1158.71199,1159.70299c-.00024.82898-.67249,1.50079-1.50153,1.50055-.82898-.00031-1.50073-.67255-1.50049-1.50153,0-.82867.67181-1.50049,1.50049-1.50049s1.50049.67181,1.50049,1.50049l.00104.00098ZM1177.67903,1159.70299c-.00024.82843-.67206,1.49976-1.50049,1.49951s-1.49976-.67206-1.49951-1.50049c0-.82843.67157-1.5,1.5-1.5s1.5.67157,1.5,1.5v.00098ZM1196.64699,1159.70299c-.00024.82867-.6723,1.50024-1.50098,1.5s-1.50024-.6723-1.5-1.50098c0-.82867.67181-1.50049,1.50049-1.50049s1.50049.67181,1.50049,1.50049v.00098Z"/>
  <path class="cls-1" d="M1150.17,1702.96901h0l22.258.56201h0l-.56-22.26001h0l22.258.56h0l-.56-22.258h0l22.25897.56h0l-.56-22.25699h0l22.26001.55899h0l-.56-22.25999h0"/>
  <path class="cls-2" d="M213.69993,926.26259c.71216,9.308-15.48078,10.94549-15.78248.64411-.89003-11.1235,15.97326-10.98531,15.78248-.64411ZM241.69993,926.26259c.71218,9.3082-15.48126,10.9454-15.78251.64377-.88954-11.12328,15.9733-10.98476,15.78251-.64377ZM269.69892,926.26259c.41091,7.35762-10.09073,11.0131-14.32955,4.69017-7.3387-11.74761,13.53578-18.50782,14.33055-4.69017h-.001ZM297.69992,926.26259c.70941,9.32774-15.50411,10.94031-15.7825.62335-.86107-11.10658,15.97194-10.94799,15.7825-.62335ZM326.20762,926.26259c.14951,10.23889-15.93379,10.23899-15.78295-.00071-.14956-10.23818,15.93374-10.23829,15.78295.00071ZM437.96162,1509.65559h0l-.561,22.259h0l22.25899-.561-.561,22.258h0l22.259-.56-.561,22.258h0l22.259-.56-.55899,22.25999h0l22.26001-.56"/>
</svg>