<?xml version="1.0" encoding="UTF-8"?>
<svg id="Capa_1" data-name="Capa 1" xmlns="http://www.w3.org/2000/svg" viewBox="0 0 313.82611 447.23551">
  <defs>
    <style>
      .cls-1 {
        fill:rgb(151, 233, 0);
      }
    </style>
  </defs>
  <path class="cls-1" d="M150.87516.69799c-4.5,1.4-8.4,3.9-11.1,6.8-3.3,3.4-121.9,208.8-126.4,218.7C4.47516,245.89799.87516,261.99799.17516,285.798c-.4,15.8-.2,20.3,1.5,30.5,7.8,45.3,35.6,86.5,73.8,109.1,49.2,29.1,113.6,29.1,162.6.1,38.4-22.7,66.2-63.8,74-109.2,2.8-16.8,2.2-43.9-1.5-59.5-2.5-10.5-8.2-27-11.9-34.5-5.5-10.9-122.4-212.4-124.7-214.8-5.3-5.8-16.4-9-23.1-6.8ZM161.77516,18.49799c3.7,3.6,120.1,205.6,125.1,217.1,7.7,17.7,11,34.5,11,55.3,0,16.2-1.9,28.6-6.6,42.9-7.3,22.1-18.3,40-34.9,56.6-27.1,27.3-61.6,41.4-101,41.4-64.4,0-119.7-44.8-136-110-3.6-14.2-4.6-40.6-2.1-55,2-11.1,7.1-27.1,11.7-36.2,7.6-15.2,120.4-209.6,123-212.1,1.6-1.5,3.8-2.7,4.9-2.7s3.3,1.2,4.9,2.7Z"/>
  <g>
    <path class="cls-1" d="M109.87516,223.49799c-1.9,1-4.5,3.3-5.7,5.2l-2.3,3.4v64.5c0,63.7,0,64.5,2.1,67.9,4.1,6.5,5.4,6.8,33.9,6.8,27.7,0,34.8-.9,47.5-6.2,48.3-20.1,59.8-86.4,21.3-122.9-8.5-8-17.6-13.2-30.3-17-8.6-2.6-10.1-2.7-36-3.1-24.5-.4-27.3-.2-30.5,1.4ZM174.17516,241.09799c18.4,6.4,30,18,36.3,36.2,2.4,6.8,2.8,9.6,2.8,19,0,12.2-1.5,18.7-6.6,28.9-4.2,8.4-15.4,19.3-23.8,23.4-11.6,5.6-16.3,6.4-41.7,6.9l-23.3.5v-118.4l24.3.4c23.1.4,24.5.5,32,3.1Z"/>
    <rect class="cls-1" x="110.90797" y="235.61073" width="84.38217" height="83.86178"/>
    <rect class="cls-1" x="128.893" y="258.73908" width="84.38217" height="83.86178"/>
    <rect class="cls-1" x="110.90797" y="274.0257" width="84.38217" height="83.86178"/>
    <rect class="cls-1" x="126.74873" y="250.33143" width="84.38217" height="83.86178"/>
    <rect class="cls-1" x="131.25192" y="254.67844" width="84.38217" height="83.86178"/>
  </g>
</svg>